<svg width="40" height="20" viewBox="0 0 40 20" fill="none" xmlns="http://www.w3.org/2000/svg">
<path d="M19.9995 0C19.1444 0 18.3147 0.11547 17.5272 0.343449C14.2506 1.26129 11.671 3.96743 10.7961 7.40489C10.5788 8.23094 10.4688 9.10141 10.4688 9.99852C10.4688 13.6965 12.3851 16.9297 15.2299 18.6558C14.4115 17.1843 13.9458 15.473 13.9458 13.6491C13.9458 13.2879 13.9627 12.9297 14.0022 12.5803C14.4707 7.91414 18.007 4.20429 22.4549 3.71281C22.7879 3.67135 23.1294 3.65359 23.4738 3.65359C25.2123 3.65359 26.8435 4.14212 28.2462 5.00074C26.6065 2.01036 23.5246 0 19.9995 0Z" fill="#045599"/>
<path d="M29.2064 7.40479C28.4529 10.3656 26.4321 12.7845 23.7933 13.9836C22.6305 14.5166 21.3492 14.8097 20.0002 14.8097C17.7282 14.8097 15.6398 13.9747 14.0057 12.5773C13.9662 12.9266 13.9492 13.2849 13.9492 13.6461C13.9492 15.4699 14.4149 17.1812 15.2334 18.6527C15.9474 19.0909 16.715 19.4285 17.5307 19.6565C18.3181 19.8844 19.1478 19.9999 20.003 19.9999C25.2693 19.9999 29.5366 15.5203 29.5366 9.99842C29.5338 9.10131 29.4237 8.23084 29.2064 7.40479Z" fill="#4478BB"/>
<path d="M29.2068 7.40497C28.4533 10.3657 26.4325 12.7847 23.7937 13.9838C24.3045 12.764 24.5839 11.4138 24.5839 9.9986C24.5839 7.61518 23.7881 5.42717 22.4588 3.70993C22.7918 3.66848 23.1333 3.65071 23.4776 3.65071C25.2161 3.65071 26.8474 4.13924 28.2501 4.99786C28.6706 5.74397 28.9923 6.55227 29.2068 7.40497Z" fill="#F48020"/>
<path d="M7.89953 10.0015C7.89953 7.53812 8.57123 5.2376 9.72836 3.29237C4.97284 5.85048 1.80061 9.3057 0 11.6299C1.13455 13.2761 3.11296 15.698 6.20334 17.581C8.29747 18.8571 10.4509 19.6033 12.5478 19.997C9.71989 17.6728 7.89953 14.0607 7.89953 10.0015Z" fill="#02519E"/>
<path d="M40 8.3701C38.8655 6.72391 36.8871 4.302 33.7967 2.42191C31.7025 1.14582 29.5492 0.399703 27.4522 0.00592041C30.2801 2.33012 32.1005 5.94226 32.1005 10.0015C32.1005 12.4648 31.4288 14.7654 30.2717 16.7106C35.0272 14.1525 38.1994 10.6943 40 8.3701Z" fill="#F48020"/>
</svg>
