<svg width="14" height="14" viewBox="0 0 14 14" fill="none" xmlns="http://www.w3.org/2000/svg">
<path d="M11.0207 10.078L13.876 12.9327L12.9327 13.876L10.078 11.0207C9.01584 11.8721 7.69468 12.3353 6.33334 12.3333C3.02134 12.3333 0.333344 9.64533 0.333344 6.33333C0.333344 3.02133 3.02134 0.333328 6.33334 0.333328C9.64534 0.333328 12.3333 3.02133 12.3333 6.33333C12.3353 7.69466 11.8722 9.01582 11.0207 10.078ZM9.68334 9.58333C10.5294 8.71325 11.0019 7.54695 11 6.33333C11 3.75466 8.91134 1.66666 6.33334 1.66666C3.75468 1.66666 1.66668 3.75466 1.66668 6.33333C1.66668 8.91133 3.75468 11 6.33334 11C7.54696 11.0019 8.71327 10.5294 9.58334 9.68333L9.68334 9.58333Z" fill="#868686"/>
</svg>
