<svg width="24" height="24" viewBox="0 0 24 24" fill="none" xmlns="http://www.w3.org/2000/svg">
<g clip-path="url(#clip0_95_4917)">
<rect width="24" height="24" rx="12" fill="#EDEDED"/>
<path d="M14.4991 10.4451L13.5549 9.50087L7.3355 15.7203V16.6645H8.2797L14.4991 10.4451ZM15.4433 9.50087L16.3875 8.55667L15.4433 7.61247L14.4991 8.55667L15.4433 9.50087ZM8.8326 18H6V15.1667L14.9712 6.19551C15.0964 6.07032 15.2663 6 15.4433 6C15.6204 6 15.7902 6.07032 15.9154 6.19551L17.8045 8.08457C17.9297 8.2098 18 8.37961 18 8.55667C18 8.73374 17.9297 8.90355 17.8045 9.02877L8.83326 18H8.8326Z" fill="#CBCBCB"/>
</g>
<defs>
<clipPath id="clip0_95_4917">
<rect width="24" height="24" rx="12" fill="white"/>
</clipPath>
</defs>
</svg>
