<svg width="60" height="30" viewBox="0 0 60 30" fill="none" xmlns="http://www.w3.org/2000/svg">
<path d="M29.9993 0C28.7166 0 27.472 0.173205 26.2909 0.515174C21.3759 1.89193 17.5066 5.95115 16.1942 11.1073C15.8682 12.3464 15.7031 13.6521 15.7031 14.9978C15.7031 20.5448 18.5776 25.3945 22.8449 27.9837C21.6172 25.7765 20.9187 23.2095 20.9187 20.4737C20.9187 19.9319 20.9441 19.3945 21.0033 18.8705C21.7061 11.8712 27.0105 6.30644 33.6824 5.56921C34.1819 5.50703 34.6942 5.48038 35.2106 5.48038C37.8184 5.48038 40.2653 6.21317 42.3693 7.50111C39.9097 3.01554 35.2868 0 29.9993 0Z" fill="#045599"/>
<path d="M43.8076 11.1073C42.6773 15.5485 39.6462 19.1769 35.688 20.9755C33.9438 21.775 32.0219 22.2146 29.9983 22.2146C26.5904 22.2146 23.4577 20.9622 21.0065 18.866C20.9473 19.3901 20.9219 19.9274 20.9219 20.4693C20.9219 23.205 21.6204 25.772 22.8481 27.9792C23.9191 28.6365 25.0706 29.1428 26.2941 29.4848C27.4752 29.8268 28.7198 30 30.0025 30C37.9021 30 44.303 23.2805 44.303 14.9978C44.2987 13.6521 44.1336 12.3464 43.8076 11.1073Z" fill="#4478BB"/>
<path d="M43.8096 11.1073C42.6792 15.5485 39.6481 19.1769 35.6899 20.9756C36.4561 19.1458 36.8753 17.1207 36.8753 14.9978C36.8753 11.4227 35.6814 8.14064 33.6875 5.56478C34.187 5.5026 34.6993 5.47595 35.2158 5.47595C37.8235 5.47595 40.2704 6.20874 42.3744 7.49668C43.0052 8.61585 43.4878 9.82828 43.8096 11.1073Z" fill="#F48020"/>
<path d="M11.8493 15.0023C11.8493 11.3072 12.8568 7.85644 14.5925 4.9386C7.45925 8.77576 2.70091 13.9586 0 17.4449C1.70183 19.9142 4.66944 23.547 9.30502 26.3716C12.4462 28.2857 15.6763 29.4049 18.8217 29.9956C14.5798 26.5093 11.8493 21.0911 11.8493 15.0023Z" fill="#02519E"/>
<path d="M60.0014 12.5552C58.2996 10.0859 55.332 6.45303 50.6964 3.63289C47.5552 1.71876 44.3251 0.599585 41.1797 0.00891113C45.4216 3.49522 48.1521 8.91343 48.1521 15.0022C48.1521 18.6973 47.1446 22.1481 45.4089 25.0659C52.5421 21.2287 57.3005 16.0415 60.0014 12.5552Z" fill="#F48020"/>
</svg>
